<svg id="Capa_1" enable-background="new 0 0 512 512" height="512" viewBox="0 0 512 512" width="512" xmlns="http://www.w3.org/2000/svg"><g><path d="m451.999 54.531-86.754-29.53 45.242 145.733c16.807 21.438 39.168 38.661 65.52 49.351l19.55 7.931 14.655-72.055c8.877-43.64-16.054-87.08-58.213-101.43z" fill="#673416"/><path d="m158.594 452.228 12.729 10.116c24.076 19.135 53.923 29.551 84.677 29.551 30.754 0 60.601-10.416 84.677-29.551l12.729-10.116v-61.366h-194.812z" fill="#e59e34"/><path d="m256 491.895c30.754 0 60.601-10.416 84.677-29.551l12.729-10.116v-61.366h-97.406z" fill="#c96d36"/><path d="m60.001 54.531c-42.159 14.35-67.09 57.789-58.214 101.43l14.655 72.055 19.55-7.931c26.353-10.69 48.713-27.913 65.52-49.351l45.242-145.733z" fill="#904d24"/><g><path d="m337.852 20.105h-163.704c-46.779 0-83.213 40.591-78.18 87.098l30.54 241.212h258.984l30.54-241.212c5.034-46.507-31.401-87.098-78.18-87.098z" fill="#e59e34"/><path d="m337.852 20.105h-81.852v328.309h129.492l30.54-241.212c5.034-46.506-31.401-87.097-78.18-87.097z" fill="#c96d36"/><path d="m378.468 341.865-59.886-40.169v-281.591h-125.165v281.591l-59.885 40.169c-34.74 23.302-43.422 70.667-19.207 104.776l19.759 27.832 121.916-81.777 121.916 81.777 19.759-27.832c24.215-34.109 15.533-81.474-19.207-104.776z" fill="#ffd295"/><path d="m378.468 341.865-59.886-40.169v-281.591h-62.582v372.591l121.916 81.777 19.759-27.832c24.215-34.109 15.533-81.474-19.207-104.776z" fill="#ffb54c"/><g><path d="m271 402.758-15-10.062-15 10.062v-59.758h30z" fill="#c96d36"/></g><g><path d="m271 402.758-15-10.062v-49.696h15z" fill="#904d24"/></g></g><g><path d="m220.537 322.396h70.925v30h-70.925z" fill="#673416"/></g><g><path d="m256 322.396h35.463v30h-35.463z" fill="#441d09"/></g></g></svg>