<svg id="Layer_5" enable-background="new 0 0 64 64" height="512" viewBox="0 0 64 64" width="512" xmlns="http://www.w3.org/2000/svg"><path d="m18 44h-6v-4h-2v4h-6v-9h2v7h2v-4h6v4h2v-7h2z"/><path d="m4.697 28-3.697 2.465v3.07l3.697 2.465h28.303v-8z" fill="#f0bc5e"/><path d="m52 21c-4.581 0-8.611 2.784-10.249 7h-2.751v8h2.751c1.638 4.216 5.668 7 10.249 7 6.065 0 11-4.935 11-11s-4.935-11-11-11zm3 14c-1.657 0-3-1.343-3-3s1.343-3 3-3 3 1.343 3 3-1.343 3-3 3z" fill="#f0bc5e"/><path d="m55 36c-2.206 0-4-1.794-4-4s1.794-4 4-4 4 1.794 4 4-1.794 4-4 4zm0-6c-1.103 0-2 .897-2 2s.897 2 2 2 2-.897 2-2-.897-2-2-2z"/><path d="m41.854 57.943-3.714-18.575c1.114-.711 1.86-1.951 1.86-3.368v-11.994c0-3.76-2.318-6.986-5.599-8.332 2.166-1.433 3.599-3.888 3.599-6.674 0-4.411-3.589-8-8-8s-8 3.589-8 8c0 3.166 1.854 5.901 4.529 7.197-.678.39-1.304.86-1.858 1.407-2.773-1.53-4.671-4.156-4.671-6.604 0-2.206-1.794-4-4-4s-4 1.794-4 4c0 5.885 3.992 11.533 9.991 14.258l.009 2.745 2-.006-.013-4.002c.006-3.857 3.149-6.995 7.006-6.995 3.863 0 7.007 3.143 7.007 7.006v11.994c0 1.103-.897 2-2 2s-2-.897-2-2v-10.859c0-1.676-.832-3.231-2.227-4.16l-1.219-.812-1.109 1.664 1.219.812c.837.557 1.336 1.49 1.336 2.496v10.859c0 2.206 1.794 4 4 4 .076 0 .147-.018.222-.023l3.694 18.449c.315 1.056-.285 2.173-1.341 2.489-1.033.31-2.188-.336-2.468-1.248l-3.513-17.76c-.448-2.266-2.087-4.126-4.278-4.857l-.633 1.897c.35.117.678.279.982.474l-5.749 20.152c-.308 1.026-1.455 1.652-2.492 1.341-1.055-.316-1.655-1.433-1.321-2.561l4.874-22.14.004-.213h-2.005l-4.808 21.853c-.632 2.112.571 4.346 2.681 4.978.374.112.761.169 1.151.169 1.752 0 3.328-1.172 3.836-2.864l5.41-18.964c.176.351.308.728.385 1.124l3.536 17.854c.505 1.678 2.081 2.85 3.833 2.85.39 0 .777-.057 1.15-.169 2.111-.632 3.314-2.866 2.704-4.888zm-27.854-46.943c0-1.103.897-2 2-2s2 .897 2 2c0 3.11 2.13 6.283 5.396 8.195-.726 1.142-1.208 2.452-1.357 3.864-4.793-2.51-8.039-7.287-8.039-12.059zm10-2c0-3.309 2.691-6 6-6s6 2.691 6 6-2.691 6-6 6-6-2.691-6-6z"/></svg>