<svg height="512pt" viewBox="0 0 511 512" width="512pt" xmlns="http://www.w3.org/2000/svg"><path d="m363.4375 512h-307.003906c-30.890625 0-55.933594-25.042969-55.933594-55.933594v-400.132812c0-30.890625 25.042969-55.933594 55.933594-55.933594h307.003906c30.890625 0 55.929688 25.042969 55.929688 55.933594v400.132812c0 30.890625-25.039063 55.933594-55.929688 55.933594zm0 0" fill="#eeeeed"/><path d="m419.367188 109.007812h-269.132813c-1.507813-42.894531-1.472656-80.878906-1.335937-109.007812h-92.464844c-30.890625 0-55.933594 25.042969-55.933594 55.933594v400.132812c0 30.890625 25.042969 55.933594 55.933594 55.933594h206.003906c-79.433594-68.433594-103.578125-234.9375-110.714844-369.144531h267.644532zm0 0" fill="#dfdfdd"/><g fill="#495059"><path d="m342.789062 205.738281h-265.710937c-4.144531 0-7.5-3.355469-7.5-7.5 0-4.140625 3.355469-7.5 7.5-7.5h265.710937c4.144532 0 7.5 3.359375 7.5 7.5 0 4.144531-3.355468 7.5-7.5 7.5zm0 0"/><path d="m342.789062 272.136719h-265.710937c-4.144531 0-7.5-3.359375-7.5-7.5s3.355469-7.5 7.5-7.5h265.710937c4.144532 0 7.5 3.359375 7.5 7.5s-3.355468 7.5-7.5 7.5zm0 0"/><path d="m342.789062 338.535156h-265.710937c-4.144531 0-7.5-3.355468-7.5-7.5 0-4.140625 3.355469-7.5 7.5-7.5h265.710937c4.144532 0 7.5 3.359375 7.5 7.5 0 4.144532-3.355468 7.5-7.5 7.5zm0 0"/><path d="m149.011719 404.933594h-71.933594c-4.144531 0-7.5-3.355469-7.5-7.5 0-4.140625 3.355469-7.5 7.5-7.5h71.933594c4.140625 0 7.5 3.359375 7.5 7.5 0 4.144531-3.359375 7.5-7.5 7.5zm0 0"/></g><path d="m419.367188 109.007812h-418.867188v-53.074218c0-30.890625 25.042969-55.933594 55.933594-55.933594h307.003906c30.890625 0 55.929688 25.042969 55.929688 55.933594zm0 0" fill="#eb8d9a"/><path d="m498.589844 115.589844-47.226563-33.066406c-14.75-10.332032-35.085937-6.746094-45.417969 8.007812l-21.949218 31.347656 100.652344 70.476563 21.949218-31.347657c10.332032-14.753906 6.746094-35.085937-8.007812-45.417968zm0 0" fill="#eb8d9a"/><path d="m383.996094 121.878906-127.679688 182.34375c-15.578125 22.25-25.027344 48.207032-27.394531 75.265625l-3.007813 34.320313c-1.820312 20.796875 19.558594 35.765625 38.480469 26.941406l31.21875-14.5625c24.617188-11.480469 45.777344-29.238281 61.359375-51.488281l127.675782-182.34375zm0 0" fill="#80bbe6"/><path d="m256.320312 304.222656c-15.582031 22.25-25.03125 48.207032-27.398437 75.265625l-3.007813 34.320313c-1.820312 20.796875 19.558594 35.765625 38.480469 26.941406l14.894531-6.945312c-39.53125-30.863282-13.332031-117.855469 10.449219-177.3125zm0 0" fill="#76acd4"/><path d="m399.050781 194.449219 12.289063 8.601562-105.574219 150.777344-12.289063-8.601563zm0 0" fill="#76acd4"/><path d="m384.011719 121.894531 100.660156 70.480469-29.144531 41.617188-100.65625-70.480469zm0 0" fill="#495059"/><path d="m249.703125 314.554688c-11.636719 19.789062-18.769531 41.960937-20.78125 64.933593l-3.007813 34.320313c-1.820312 20.796875 19.558594 35.765625 38.480469 26.941406l31.21875-14.5625c20.902344-9.746094 39.292969-24.035156 53.914063-41.738281zm0 0" fill="#f8e47c"/><path d="m249.703125 314.554688c-11.636719 19.789062-18.769531 41.960937-20.78125 64.933593l-3.007813 34.320313c-1.820312 20.796875 19.558594 35.765625 38.480469 26.941406l14.894531-6.945312c-25.519531-19.921876-23.648437-63.234376-12.714843-107.4375zm0 0" fill="#edd35f"/><path d="m228.914062 379.539062-3 34.269532c-1.820312 20.796875 19.558594 35.765625 38.480469 26.941406l31.171875-14.539062zm0 0" fill="#495059"/><path d="m261.023438 402.019531-32.109376-22.480469-3 34.269532c-1.820312 20.796875 19.558594 35.765625 38.480469 26.941406l14.894531-6.945312c-9.742187-7.605469-15.488281-18.617188-18.265624-31.785157zm0 0" fill="#41464f"/><path d="m148.898438 0h-92.464844c-30.890625 0-55.933594 25.042969-55.933594 55.933594v53.074218h149.734375c-1.507813-42.898437-1.472656-80.875-1.335937-109.007812zm0 0" fill="#d67c88"/><path d="m276.40625 34.660156h-132.941406c-8.050782 0-14.574219 6.527344-14.574219 14.574219v10.535156c0 8.050781 6.523437 14.574219 14.574219 14.574219h132.941406c8.046875 0 14.574219-6.523438 14.574219-14.574219v-10.535156c0-8.046875-6.527344-14.574219-14.574219-14.574219zm0 0" fill="#fff"/><path d="m148.859375 34.660156h-5.394531c-8.050782 0-14.574219 6.527344-14.574219 14.574219v10.535156c0 8.050781 6.523437 14.574219 14.574219 14.574219h5.835937c-.269531-14.089844-.394531-27.390625-.441406-39.683594zm0 0" fill="#eeeeed"/></svg>