<svg id="Capa_1" enable-background="new 0 0 512 512" height="512" viewBox="0 0 512 512" width="512" xmlns="http://www.w3.org/2000/svg"><g><g><circle cx="256" cy="256" fill="#dcf5ff" r="235.551"/></g><g><path d="m370.282 49.999c42.973 42.672 69.587 101.796 69.587 167.141 0 130.091-105.46 235.551-235.551 235.551-41.473 0-80.434-10.732-114.282-29.55 42.579 42.281 101.218 68.41 165.964 68.41 130.091 0 235.551-105.46 235.551-235.551 0-88.618-48.946-165.792-121.269-206.001z" fill="#97e4f9"/></g><g><g><path d="m256 512c-68.38 0-132.667-26.629-181.019-74.981s-74.981-112.639-74.981-181.019 26.629-132.667 74.981-181.019 112.639-74.981 181.019-74.981 132.667 26.629 181.019 74.981 74.981 112.639 74.981 181.019-26.629 132.667-74.981 181.019-112.639 74.981-181.019 74.981zm0-471.101c-118.607 0-215.101 96.493-215.101 215.101s96.494 215.101 215.101 215.101 215.101-96.493 215.101-215.101-96.494-215.101-215.101-215.101z" fill="#0acefa"/></g></g><g><g><path d="m437.019 74.981c-3.936-3.936-7.989-7.713-12.13-11.358 41.138 46.727 63.623 106.077 63.623 168.891 0 68.38-26.629 132.667-74.981 181.019s-112.639 74.981-181.019 74.981c-62.814 0-122.163-22.485-168.89-63.622 3.645 4.141 7.421 8.192 11.357 12.128 48.354 48.351 112.641 74.98 181.021 74.98s132.667-26.629 181.019-74.981 74.981-112.639 74.981-181.019-26.629-132.667-74.981-181.019z" fill="#09a6ee"/></g></g><g><g><path d="m297.555 349.809h-143.443c-8.517 0-14.836-7.898-12.968-16.207l39.483-175.645c1.364-6.066 6.751-10.377 12.968-10.377h124.646c20.975 0 40.521 9.393 53.626 25.77 13.105 16.378 17.983 37.508 13.382 57.972l-13.243 58.914c-3.786 16.844-13.296 32.06-26.775 42.847-13.48 10.785-30.412 16.726-47.676 16.726zm-104.547-46.46c-.287 1.278.685 2.493 1.995 2.493h102.552c15.238 0 28.214-10.383 31.556-25.249l13.243-58.914c1.684-7.49-.161-15.229-5.062-21.164-4.793-5.805-12.078-8.97-19.606-8.97h-97.909c-.957 0-1.785.663-1.995 1.596z" fill="#0acefa"/></g></g><g><g><path d="m257.782 271.42h-142.329c-4.228 0-7.33-3.973-6.303-8.075l7.236-28.922c1.025-4.096 4.705-6.969 8.927-6.969h142.329c4.228 0 7.329 3.973 6.303 8.075l-7.236 28.922c-1.024 4.096-4.705 6.969-8.927 6.969z" fill="#0acefa"/></g></g><g><g><path d="m371.867 173.35c-4.251-5.313-9.189-9.877-14.624-13.637 10.958 15.776 14.821 35.253 10.569 54.171l-13.243 58.914c-3.786 16.844-13.296 32.06-26.775 42.847-13.48 10.786-30.412 16.726-47.676 16.726h-138.697l-.277 1.231c-1.868 8.31 4.452 16.207 12.968 16.207h143.443c17.264 0 34.196-5.94 47.676-16.726 13.48-10.787 22.989-26.003 26.775-42.847l13.243-58.914c4.601-20.464-.277-41.593-13.382-57.972z" fill="#09a6ee"/></g></g><g><path d="m267.642 227.454h-13.477l-4.893 19.559c-1.025 4.096-4.705 6.969-8.927 6.969h-128.853l-2.342 9.364c-1.026 4.101 2.076 8.075 6.303 8.075h142.329c4.222 0 7.902-2.873 8.927-6.969l7.236-28.922c1.026-4.102-2.076-8.076-6.303-8.076z" fill="#09a6ee"/></g></g></svg>